<svg width="845" height="208" viewBox="0 0 845 208" fill="none" xmlns="http://www.w3.org/2000/svg">
<path d="M0 0.976854C14.72 0.803521 29.4667 0.603506 44.1867 1.00351C44.5333 1.83017 45.2133 3.45683 45.56 4.2835C45.9067 4.93683 46.6133 6.27018 46.96 6.92351C47.76 9.15018 48.6 11.3635 49.4533 13.5902C50.7467 17.5902 52.1867 21.5368 53.5333 25.5235C58.96 40.1502 64.3067 54.8035 69.5467 69.4968C70.84 74.1902 72.8533 78.6435 74.3467 83.2702C79.48 96.9769 84.32 110.79 89.0133 124.644C89.6267 126.244 90.2 127.87 90.8133 129.497C91.9333 132.79 93.1867 136.03 94.4267 139.297C95.28 141.484 96.12 143.67 96.96 145.884C100.68 153.924 102.04 162.897 106.56 170.59C108.467 168.177 110.133 165.617 111.507 162.884C112.6 161.244 113.493 159.47 114.2 157.644C114.973 155.35 116.307 153.51 118.24 152.124C118.44 155.004 118.093 157.804 117.173 160.51C115.28 164.27 113.213 167.937 110.973 171.51C103.4 181.03 92.24 186.604 82.8933 194.097C79.6667 196.604 76.4 199.057 73 201.323C70.5067 203.297 68.1067 205.457 65.2533 206.91C64.2667 207.177 63.2933 207.47 62.3467 207.817C61.9733 207.043 61.2533 205.483 60.8933 204.697C58.8933 199.417 57.48 193.95 55.6133 188.63C55.4267 187.87 55.0533 186.364 54.8667 185.604C52.8133 179.097 51.1067 172.484 48.96 166.004C48.5733 164.63 48.1867 163.284 47.7733 161.937C46.5467 157.844 45.1867 153.803 44.0267 149.697C42.2667 143.537 40.16 137.484 38.32 131.35C37.9333 130.004 37.5333 128.657 37.1067 127.337C35.76 123.23 34.3867 119.137 33.44 114.924C31.9733 110.497 30.4933 106.07 29.3467 101.55C28.8 99.8702 28.2933 98.1635 27.76 96.4835C21.2 74.6435 14.6 52.8035 7.97334 30.9635C7.58667 29.5902 7.21334 28.2035 6.86667 26.8302C4.81334 18.1502 0.706667 9.91019 0 0.976854Z" fill="black"/>
<path d="M201.973 1.01672C214.533 -0.983285 227.347 0.563382 240 0.683382C243.96 0.536715 247.96 -0.236651 251.88 0.816683C249.347 13.75 245.32 26.4167 241.213 38.9367C238.507 45.5501 233.96 51.2167 229.507 56.7234C223.453 61.3767 216.933 65.3767 210.92 70.0967C200.267 76.9634 190.413 85.0967 179.347 91.2967C179.387 90.5367 179.453 89.0167 179.493 88.2567C181.16 83.4434 182.76 78.6034 183.72 73.6034C184.227 71.4701 184.747 69.3501 185.44 67.2701C185.813 65.8834 186.2 64.4967 186.573 63.11C187.347 59.47 188.32 55.8833 189.053 52.23C189.64 50.11 190.16 47.99 190.76 45.8834C194.667 30.9634 198.067 15.9234 201.973 1.01672Z" fill="black"/>
<path d="M104.174 2.33691C106.4 2.48358 108.627 2.64357 110.854 2.83024C117.894 3.91024 125.054 3.28359 132.134 4.01693C136.254 4.80359 137.88 8.49691 138.894 12.1236C139.574 15.3769 140.44 18.5902 141.027 21.8569C141.654 23.9769 142.187 26.1236 142.8 28.2703C144.027 34.2036 146.2 39.8836 148.12 45.6303C149.227 49.3236 150.547 52.9503 151.774 56.6036C152.2 57.8969 152.64 59.2036 153.054 60.5236C154.627 64.8436 156.014 69.2169 157.574 73.5503C157.974 74.8836 158.4 76.2169 158.84 77.5636C161.734 85.9769 165.347 94.1369 168.174 102.577C169.44 106.817 171.08 110.937 172.987 114.937C176.947 114.004 179.134 110.324 182.174 107.964C182.547 107.697 183.307 107.137 183.68 106.857C190.534 100.004 199.667 96.3503 207.267 90.5103C212.347 86.6969 217.934 83.6036 222.707 79.3636C224.467 78.2436 226.187 77.0569 227.88 75.8436C228.614 75.9369 230.094 76.1369 230.827 76.2436C230.36 76.4702 229.4 76.9236 228.934 77.1502C228.787 79.5236 228.467 81.9103 227.827 84.2169C226.894 87.3369 226.014 90.4702 225.014 93.5636C223.507 97.5236 222.36 101.617 221.12 105.67C219.707 110.537 218.654 115.524 216.987 120.324C216.8 121.057 216.44 122.55 216.267 123.284C215.24 126.364 214.32 129.484 213.48 132.617C212.587 135.71 211.694 138.804 210.827 141.897C209.267 146.67 208 151.55 206.36 156.297C205.934 157.604 205.494 158.91 205.054 160.217C204.4 162.097 203.694 163.964 203 165.83C202.267 167.497 201.56 169.19 200.84 170.87C199.787 172.857 198.734 174.844 197.734 176.87C195.507 179.444 193.547 182.27 191.147 184.684C183.734 189.964 176.027 194.897 167.814 198.844C164.72 200.284 161.614 201.644 158.494 203.017C156.6 203.55 154.654 203.937 152.734 204.337C151.16 200.777 149.64 197.204 148.294 193.564C146.827 190.017 145.454 186.457 144.027 182.91C141.88 177.137 139.694 171.377 137.494 165.63C132 152.99 126.88 140.204 122.254 127.244C120.974 123.604 119.627 120.004 118.04 116.497C117.947 116.044 117.76 115.137 117.68 114.684C116.44 112.297 115.374 109.83 114.4 107.337C113.64 105.39 112.854 103.47 112.134 101.524C110.587 97.7636 108.92 94.0169 107.987 90.0436C107.814 90.1236 107.467 90.3102 107.307 90.4036C106.774 87.3102 105.334 84.4969 104.227 81.6036C103.52 79.8169 102.814 78.0436 102.107 76.2836C101.347 74.0436 100.547 71.8303 99.5735 69.6836C99.1069 66.1769 98.9335 62.6302 98.5469 59.1102C99.0935 51.7636 101.867 44.9369 104.16 38.0169C104.627 36.6436 105.12 35.2703 105.627 33.9236C108.427 27.0703 107.707 19.4436 106.96 12.2569C105.587 9.09692 104.48 5.79025 104.174 2.33691Z" fill="black"/>
<path d="M293.653 66.7236C298.387 66.2703 303.16 66.177 307.893 66.6703C308.413 68.1236 308.96 69.5636 309.533 71.017C313.573 80.7903 317.027 90.817 321 100.63C322.333 104.177 323.68 107.71 324.987 111.27C325.4 112.63 325.813 114.004 326.213 115.39C327.227 117.31 328.253 119.244 329.253 121.19C329.987 119.164 330.787 117.164 331.56 115.164C333.6 110.697 335.293 106.07 336.88 101.43C342.08 89.9636 345.16 77.6036 351.04 66.4703C354.48 66.337 357.933 66.337 361.387 66.6036C365.373 75.457 368.533 84.6436 372.28 93.5903C373.8 97.7503 375.587 101.804 377.053 105.977C378.92 110.777 381.013 115.51 382.533 120.444C383.867 119.417 384.88 118.07 385.373 116.444C388.053 109.737 390.653 102.977 393.053 96.1636C397.027 86.2969 399.893 75.9503 404.92 66.5236C409.533 66.3503 414.16 66.3103 418.787 66.5369C418.133 70.5236 416.493 74.2169 414.92 77.9103C409.16 92.9636 402.947 107.857 397.027 122.844C396.293 124.777 395.533 126.71 394.827 128.657C394.2 130.284 393.627 131.924 393.04 133.577C392.373 135.204 391.68 136.83 390.987 138.457C385.947 138.59 380.893 138.59 375.853 138.337C373.253 131.87 371.013 125.257 368.32 118.83C366.173 114.164 364.307 109.364 362.227 104.67C360.813 100.15 358.827 95.857 357.213 91.417C353.2 91.097 353.187 96.2703 351.653 98.8569C350.56 102.524 349.147 106.097 347.613 109.604C345.32 115.297 343.253 121.097 340.867 126.75C339.52 130.71 338.12 134.67 336.333 138.457C331.253 138.524 326.173 138.604 321.107 138.204C320.667 136.764 320.213 135.337 319.733 133.937C315.307 123.164 311.053 112.337 306.747 101.537C306.107 99.8969 305.493 98.257 304.853 96.6436C304.587 95.9636 304.053 94.6036 303.787 93.9236C300.56 84.817 295.533 76.217 293.653 66.7236Z" fill="black"/>
<path d="M450.213 66.6565C454.6 66.0965 459.027 66.2166 463.427 66.3499C464.827 71.8032 464.347 77.4832 464.413 83.0566C464.12 101.51 464.893 119.977 464.293 138.43C459.573 138.657 454.853 138.63 450.133 138.483C449.267 126.243 450.013 113.963 449.92 101.697C450.08 90.0165 449.787 78.3365 450.213 66.6565Z" fill="black"/>
<path d="M493.84 66.4833C519.214 66.4433 544.6 66.0433 569.974 66.5766C571.374 70.2299 571.107 74.1633 570.894 78.0033C570.187 78.3233 568.76 78.9766 568.04 79.31C558.547 79.55 549.027 79.2166 539.534 79.6966C539.267 99.2966 539.534 118.897 539.4 138.51C534.84 138.577 530.28 138.523 525.734 138.43C525.32 123.07 525.8 107.71 525.627 92.35C525.494 88.0433 526.187 83.5899 524.72 79.4433C514.414 78.9099 503.84 80.5233 493.72 78.3633C493.694 74.4033 493.707 70.4433 493.84 66.4833Z" fill="black"/>
<path d="M603.613 66.6433C615.253 66.2033 626.907 66.5899 638.56 66.4032C646.573 66.5766 654.853 65.6032 662.533 68.5366C668.973 71.0299 674.04 76.3499 676.347 82.8566C676.907 87.4432 676.96 92.0833 676.347 96.6833C673.253 105.95 664.4 111.817 655.04 113.31C655.08 113.83 655.147 114.883 655.173 115.403C662.267 123.35 670.427 130.283 677.52 138.217C671.96 138.577 666.387 138.497 660.84 138.417C651.587 130.617 643.64 121.457 634.76 113.27C632.76 113.07 630.8 112.883 628.827 112.697C628.613 108.923 628.587 105.137 628.787 101.377C636.773 101.177 644.76 101.47 652.747 101.217C656.267 101.137 659.093 98.7499 661.627 96.5499C663.76 91.2566 663.107 85.3099 658.907 81.2166C656.6 80.2966 654.227 79.5633 651.827 78.9366C645.653 78.8833 639.467 79.9232 633.307 79.0832C627.147 78.1899 621.013 79.5499 614.867 79.4166C613.08 98.9766 614.853 118.71 613.96 138.323C609.453 138.537 604.947 138.577 600.453 138.39C600.253 116.377 600.333 94.3366 600.587 72.3232C600.76 70.2966 600.64 66.4833 603.613 66.6433Z" fill="black"/>
<path d="M713.813 138.444C713.587 114.43 713.533 90.4035 713.92 66.4035C717.8 66.3635 721.68 66.5502 725.587 66.6036C727.92 69.3902 727.187 73.1369 727.347 76.4835C727.253 97.1369 727.4 117.79 727.307 138.444C722.8 138.51 718.307 138.47 713.813 138.444Z" fill="black"/>
<path d="M764.853 66.3902C767.787 66.3769 770.747 66.4569 773.707 66.5502C783.627 73.7902 792.293 82.5769 801.427 90.7502C808.667 96.3902 814.693 103.377 821.733 109.257C824.427 111.51 827.013 113.91 829.48 116.417C830.947 111.15 830.347 105.644 830.493 100.257C831.573 88.9635 829.48 77.6835 831.12 66.4169C835.16 66.2835 839.2 66.3769 843.253 66.4435C844.773 69.5369 844.347 73.0169 844.4 76.3635C844.227 97.0169 844.387 117.684 844.333 138.337C841.373 138.39 838.387 138.71 835.48 138.19C831.12 136.137 828.12 132.217 824.48 129.19C815.587 122.204 807.813 113.937 799.027 106.804C792.28 101.47 786.867 94.5769 779.56 89.9369C779.253 89.5369 778.667 88.7235 778.373 88.3235C777.387 105.004 777.72 121.75 777.867 138.457C773.4 138.51 768.947 138.43 764.493 138.564C763.72 136.577 763.44 134.47 763.56 132.364C763.693 111.47 763.413 90.5769 763.693 69.6835C763.973 68.8569 764.56 67.2169 764.853 66.3902Z" fill="black"/>
</svg>
