<?xml version="1.0" encoding="UTF-8" ?>
<!DOCTYPE svg PUBLIC "-//W3C//DTD SVG 1.1//EN" "http://www.w3.org/Graphics/SVG/1.1/DTD/svg11.dtd">
<svg width="782pt" height="782pt" viewBox="0 0 782 782" version="1.1" xmlns="http://www.w3.org/2000/svg">
<g id="#f7f7f7ff">
</g>
<g id="#000000ff">
<path fill="#000000" opacity="1.00" d=" M 145.26 209.62 C 168.75 209.69 192.24 209.70 215.73 209.64 L 215.15 210.56 C 217.56 210.49 219.98 210.50 222.40 210.45 C 222.84 211.54 223.23 212.65 223.59 213.78 L 224.73 213.34 C 224.61 213.91 224.37 215.06 224.25 215.63 L 225.50 215.27 C 225.54 216.72 225.58 218.17 225.63 219.62 C 226.10 219.51 227.04 219.31 227.51 219.20 C 227.52 220.08 227.55 221.83 227.56 222.71 L 228.83 222.35 C 228.69 222.89 228.41 223.98 228.27 224.52 L 229.93 224.48 C 229.73 225.00 229.33 226.04 229.13 226.57 L 230.48 226.29 C 230.47 227.16 230.44 228.89 230.42 229.75 L 231.83 229.42 C 231.66 229.95 231.32 231.03 231.15 231.57 L 232.49 231.32 C 232.50 232.77 232.51 234.23 232.52 235.70 L 233.83 235.13 L 233.17 236.79 L 234.55 236.27 C 234.51 237.76 234.47 239.25 234.44 240.74 L 235.50 240.32 C 235.48 241.18 235.46 242.88 235.44 243.73 L 236.64 243.23 C 236.60 244.10 236.52 245.83 236.48 246.69 L 237.55 246.25 C 237.54 247.11 237.50 248.82 237.49 249.67 L 238.92 249.38 C 238.75 249.93 238.42 251.03 238.25 251.58 L 239.51 251.30 C 239.50 252.77 239.49 254.24 239.48 255.72 L 240.89 255.36 C 240.72 255.91 240.37 257.01 240.20 257.55 L 241.52 257.29 C 241.51 258.74 241.50 260.20 241.49 261.67 L 242.76 261.43 C 242.64 261.98 242.39 263.09 242.26 263.64 L 243.63 263.26 C 243.58 264.13 243.49 265.86 243.44 266.73 L 244.51 266.35 C 244.48 267.18 244.42 268.84 244.38 269.67 L 245.89 269.47 C 245.70 269.98 245.34 271.01 245.16 271.52 L 246.42 271.33 C 246.47 272.76 246.53 274.19 246.59 275.62 C 247.04 275.56 247.93 275.42 248.37 275.35 C 248.45 277.44 248.55 279.53 248.63 281.63 C 249.08 281.55 249.97 281.41 250.42 281.34 C 250.56 283.69 250.69 286.05 250.78 288.42 C 251.26 288.39 252.23 288.33 252.71 288.30 C 252.62 288.88 252.44 290.04 252.35 290.62 L 253.46 290.33 C 253.46 291.79 253.47 293.25 253.48 294.72 L 254.49 294.17 C 255.12 295.95 255.57 297.79 255.72 299.69 L 256.51 299.19 C 257.15 300.96 257.60 302.78 257.73 304.67 L 258.80 304.48 C 258.64 305.00 258.32 306.04 258.16 306.56 L 259.59 306.30 C 259.57 307.14 259.55 308.82 259.53 309.66 L 260.51 309.33 C 260.47 310.18 260.39 311.89 260.36 312.74 L 261.52 312.37 C 261.51 313.19 261.50 314.84 261.50 315.67 L 262.46 315.28 C 262.52 316.70 262.59 318.12 262.66 319.55 C 263.10 319.47 263.97 319.32 264.41 319.25 C 264.50 321.37 264.61 323.51 264.69 325.64 C 265.13 325.52 266.02 325.30 266.46 325.18 C 266.51 326.69 266.55 328.19 266.59 329.70 L 267.84 329.51 C 267.63 330.02 267.20 331.06 266.98 331.57 L 268.51 331.34 C 268.50 332.18 268.49 333.86 268.48 334.69 L 269.48 334.31 C 269.49 335.16 269.49 336.88 269.49 337.74 L 270.91 337.42 C 270.70 337.96 270.30 339.03 270.10 339.57 L 271.42 339.30 C 271.46 341.10 271.53 342.91 271.59 344.71 L 272.93 344.15 L 272.23 345.81 L 273.52 345.30 C 273.50 346.75 273.49 348.21 273.48 349.67 L 274.79 349.42 C 274.65 349.99 274.37 351.12 274.23 351.69 L 275.37 351.17 C 275.54 353.41 276.17 355.58 276.74 357.76 C 277.10 357.67 277.83 357.51 278.19 357.43 C 278.23 360.24 278.80 362.98 279.68 365.65 L 280.48 365.29 C 280.49 367.07 280.50 368.87 280.52 370.67 C 280.87 370.55 281.59 370.33 281.95 370.22 L 281.11 371.76 L 282.51 371.29 C 282.53 372.77 282.55 374.25 282.57 375.73 L 283.91 375.17 L 283.09 376.80 L 284.50 376.31 C 284.52 377.76 284.55 379.22 284.58 380.69 L 285.91 380.42 C 285.71 380.96 285.30 382.04 285.09 382.58 L 286.53 382.29 C 286.57 383.76 286.61 385.23 286.65 386.71 L 287.95 386.35 C 287.74 386.89 287.32 387.98 287.11 388.53 L 288.80 388.49 C 288.65 389.02 288.34 390.08 288.18 390.61 L 289.47 390.27 C 289.51 392.06 289.58 393.86 289.63 395.65 C 290.09 395.57 291.00 395.41 291.45 395.33 C 291.48 396.78 291.51 398.24 291.53 399.71 L 292.54 399.29 C 292.52 400.14 292.47 401.85 292.45 402.70 L 293.61 402.22 C 293.61 403.31 293.62 405.48 293.62 406.56 C 293.96 406.49 294.65 406.33 294.99 406.25 L 294.24 407.77 L 295.88 407.41 C 295.70 407.94 295.34 409.00 295.16 409.53 L 296.46 409.30 C 296.49 411.07 296.55 412.85 296.60 414.62 C 297.07 414.54 298.00 414.38 298.46 414.30 C 298.47 415.78 298.48 417.27 298.49 418.76 L 299.55 418.30 C 299.49 419.43 299.44 420.57 299.38 421.72 C 299.69 421.59 300.31 421.34 300.62 421.22 C 300.61 422.73 300.61 424.24 300.62 425.75 C 301.00 425.64 301.77 425.42 302.16 425.30 C 302.65 427.84 303.42 430.32 303.71 432.90 C 304.09 432.76 304.86 432.49 305.24 432.35 C 305.40 434.81 305.54 437.27 305.61 439.75 L 306.93 439.11 L 306.19 440.78 L 307.53 440.25 C 307.54 442.07 307.57 443.91 307.58 445.74 L 308.90 445.17 L 308.13 446.82 L 309.52 446.30 C 309.55 447.76 309.57 449.24 309.59 450.72 L 310.58 450.18 C 310.57 451.07 310.54 452.83 310.53 453.71 C 310.99 453.61 311.91 453.41 312.37 453.30 C 312.43 455.44 312.51 457.59 312.56 459.74 L 314.01 459.17 L 313.10 460.78 L 314.52 460.29 C 314.50 461.77 314.49 463.25 314.47 464.74 L 315.82 464.44 C 315.62 464.99 315.23 466.09 315.04 466.65 L 316.53 466.28 C 316.51 467.15 316.48 468.88 316.47 469.75 L 317.49 469.29 C 317.48 470.77 317.47 472.27 317.48 473.76 L 318.66 473.17 C 318.63 474.06 318.57 475.85 318.54 476.75 L 319.65 476.18 C 319.60 477.06 319.50 478.83 319.45 479.72 L 320.87 479.12 L 320.15 480.81 L 321.51 480.28 C 321.49 481.77 321.47 483.25 321.46 484.75 L 322.89 484.39 C 322.70 484.95 322.31 486.06 322.12 486.62 L 323.58 486.23 C 323.54 487.12 323.45 488.90 323.41 489.79 L 324.49 489.29 C 324.47 490.15 324.44 491.88 324.42 492.74 L 325.94 492.40 C 325.72 492.95 325.28 494.06 325.07 494.61 L 326.48 494.30 C 326.45 495.15 326.37 496.85 326.34 497.70 C 326.72 497.65 327.49 497.56 327.87 497.51 L 326.99 499.60 L 328.46 499.27 C 328.45 500.75 328.46 502.23 328.46 503.72 L 329.87 503.39 C 329.69 503.94 329.33 505.05 329.15 505.61 L 330.58 505.23 C 330.55 506.12 330.47 507.91 330.43 508.81 L 331.55 508.27 C 331.52 509.14 331.44 510.89 331.40 511.77 L 332.57 511.18 C 332.55 512.08 332.50 513.89 332.48 514.80 L 333.58 514.21 C 333.58 515.07 333.58 516.81 333.58 517.67 C 334.04 517.58 334.95 517.38 335.40 517.28 C 335.42 518.80 335.43 520.32 335.45 521.85 L 336.83 521.34 C 336.65 521.92 336.29 523.08 336.11 523.66 L 337.51 523.25 C 337.50 524.14 337.48 525.90 337.46 526.79 L 338.90 526.36 C 338.70 526.92 338.30 528.04 338.10 528.60 L 339.53 528.27 C 339.53 529.74 339.53 531.21 339.53 532.69 L 340.88 532.36 C 340.70 532.92 340.36 534.06 340.18 534.62 L 341.63 534.24 C 341.58 535.12 341.49 536.88 341.44 537.76 L 342.56 537.21 C 342.55 538.09 342.52 539.86 342.51 540.74 L 344.31 540.37 C 343.97 540.91 343.27 541.98 342.92 542.51 L 344.51 542.27 C 344.50 543.76 344.48 545.26 344.48 546.76 L 345.88 546.11 L 345.07 547.78 L 346.46 547.32 C 346.47 549.12 346.51 550.93 346.53 552.74 L 347.64 552.21 C 347.59 553.09 347.50 554.86 347.45 555.74 L 348.63 555.18 C 348.59 556.06 348.50 557.82 348.46 558.70 L 349.88 558.39 C 349.69 558.93 349.32 560.02 349.13 560.56 L 350.81 560.44 C 350.64 561.00 350.29 562.10 350.12 562.65 L 351.47 562.30 C 351.48 563.77 351.49 565.24 351.50 566.72 L 352.89 566.33 C 352.72 566.88 352.39 567.98 352.22 568.53 L 353.88 568.44 C 353.70 568.99 353.34 570.07 353.16 570.62 L 354.78 570.19 L 354.19 571.83 L 355.79 571.39 C 355.63 571.94 355.32 573.04 355.16 573.59 C 357.04 573.58 358.92 573.56 360.81 573.53 C 360.63 572.99 360.26 571.91 360.08 571.37 L 361.50 571.73 C 361.53 570.90 361.60 569.22 361.63 568.38 C 362.09 568.48 363.01 568.69 363.47 568.79 C 363.51 567.96 363.57 566.29 363.61 565.46 C 364.12 565.50 365.15 565.59 365.67 565.64 C 365.56 565.06 365.34 563.91 365.23 563.34 L 366.77 563.58 C 366.62 563.03 366.33 561.93 366.18 561.38 L 367.77 561.60 C 367.63 561.04 367.34 559.93 367.19 559.37 L 368.58 559.73 C 368.59 558.91 368.61 557.28 368.62 556.47 C 369.13 556.52 370.15 556.64 370.66 556.70 C 370.58 556.11 370.41 554.92 370.32 554.33 L 371.89 554.59 C 371.71 554.06 371.34 552.99 371.16 552.46 L 372.81 552.59 C 372.65 552.04 372.34 550.94 372.18 550.40 L 373.84 550.57 C 373.66 550.02 373.30 548.91 373.12 548.35 L 374.55 548.76 C 374.53 547.87 374.49 546.10 374.47 545.22 L 375.62 545.85 C 375.61 544.96 375.59 543.17 375.58 542.28 L 377.17 542.95 L 376.14 541.31 L 377.82 541.79 L 377.20 540.14 L 378.76 540.80 L 378.21 539.06 L 379.46 539.87 C 378.22 537.07 381.91 534.65 383.61 537.22 C 383.69 540.41 383.34 543.62 383.47 546.82 L 382.34 546.16 C 382.40 547.06 382.51 548.86 382.57 549.77 L 381.36 549.15 C 381.40 550.04 381.48 551.83 381.53 552.73 L 380.06 552.34 C 380.26 552.90 380.67 554.01 380.87 554.57 L 379.18 554.42 C 379.35 554.98 379.69 556.09 379.87 556.65 L 378.25 556.38 C 378.39 556.94 378.68 558.06 378.83 558.62 L 377.23 558.42 C 377.37 558.96 377.64 560.03 377.78 560.57 L 376.16 560.45 C 376.33 560.98 376.68 562.04 376.86 562.57 L 375.22 562.44 C 375.37 562.98 375.68 564.05 375.83 564.59 L 374.21 564.44 C 374.36 564.99 374.67 566.08 374.83 566.63 L 373.44 566.26 C 373.44 567.08 373.43 568.71 373.42 569.53 C 372.89 569.49 371.83 569.41 371.30 569.37 C 371.42 569.95 371.66 571.11 371.78 571.69 L 370.44 571.26 C 370.44 572.08 370.43 573.72 370.43 574.54 C 369.90 574.50 368.84 574.43 368.32 574.39 C 368.41 574.96 368.61 576.09 368.71 576.66 L 367.22 576.16 L 367.70 577.75 L 366.07 577.41 C 366.26 577.94 366.63 579.01 366.82 579.55 L 365.21 579.15 L 365.72 580.75 L 364.24 580.31 C 364.34 580.88 364.52 582.01 364.62 582.58 C 364.05 582.53 362.93 582.41 362.36 582.36 C 362.41 582.78 362.49 583.64 362.53 584.06 C 360.25 585.35 358.21 587.27 357.11 589.67 C 356.69 589.58 355.86 589.39 355.44 589.29 C 355.47 589.87 355.52 591.04 355.55 591.62 C 355.00 591.53 353.88 591.34 353.32 591.24 L 353.81 592.65 L 352.28 592.28 L 352.58 593.89 L 351.15 593.11 L 351.74 594.78 L 350.16 594.14 L 350.60 595.76 C 350.05 595.62 348.95 595.32 348.40 595.17 L 348.78 596.80 L 347.21 596.18 L 347.84 597.66 L 346.31 597.21 L 346.49 598.76 L 345.13 598.15 L 345.57 599.78 C 345.04 599.61 343.98 599.29 343.45 599.13 L 343.60 600.72 C 343.06 600.64 341.97 600.47 341.43 600.39 C 341.46 600.95 341.53 602.07 341.56 602.63 C 341.01 602.53 339.92 602.34 339.37 602.24 L 339.62 603.78 C 339.08 603.67 338.00 603.46 337.46 603.35 C 337.48 603.94 337.52 605.11 337.54 605.70 C 337.00 605.58 335.91 605.34 335.37 605.23 L 335.67 606.75 C 335.11 606.66 334.00 606.47 333.44 606.37 C 333.47 606.94 333.53 608.08 333.56 608.65 C 333.01 608.56 331.90 608.36 331.34 608.26 L 331.70 609.86 L 330.19 609.15 L 330.63 610.77 C 330.08 610.64 328.98 610.39 328.43 610.27 L 328.63 611.85 C 328.10 611.73 327.05 611.47 326.52 611.35 C 326.52 611.92 326.52 613.08 326.52 613.65 C 325.97 613.54 324.88 613.32 324.33 613.20 L 324.57 614.79 C 324.01 614.64 322.90 614.33 322.34 614.17 L 322.87 615.84 L 321.28 615.06 L 321.65 616.72 C 321.07 616.59 319.91 616.35 319.34 616.22 L 319.84 617.87 L 318.30 617.01 L 318.67 618.64 C 318.10 618.57 316.96 618.42 316.39 618.34 C 316.41 618.91 316.46 620.06 316.48 620.63 C 315.94 620.49 314.87 620.22 314.33 620.08 L 314.61 621.68 C 314.05 621.57 312.94 621.36 312.38 621.25 L 312.63 622.80 C 312.09 622.68 311.02 622.45 310.49 622.33 C 310.49 622.92 310.50 624.09 310.50 624.68 C 309.97 624.56 308.91 624.33 308.37 624.21 L 308.69 625.74 C 308.13 625.67 307.00 625.51 306.44 625.43 C 306.49 625.98 306.59 627.08 306.64 627.63 C 306.08 627.57 304.95 627.45 304.39 627.39 C 304.43 627.95 304.52 629.06 304.56 629.62 C 303.99 629.52 302.85 629.31 302.28 629.21 L 302.80 630.74 L 301.18 630.26 L 301.62 631.88 C 301.07 631.70 299.99 631.35 299.45 631.17 L 299.77 632.82 L 298.26 632.20 L 298.69 633.77 C 298.11 633.67 296.97 633.47 296.39 633.37 C 296.45 633.90 296.57 634.95 296.63 635.47 C 295.83 635.50 294.24 635.55 293.44 635.58 C 293.49 636.11 293.57 637.16 293.61 637.69 C 293.04 637.58 291.89 637.36 291.32 637.25 L 291.82 638.78 L 290.22 638.17 L 290.59 639.77 C 290.05 639.62 288.96 639.32 288.42 639.18 L 288.64 640.78 C 288.09 640.67 286.97 640.47 286.42 640.37 C 286.47 640.85 286.56 641.80 286.61 642.28 C 285.98 642.64 284.74 643.35 284.12 643.70 L 283.31 643.14 L 283.61 644.67 L 282.15 644.31 L 282.55 645.77 C 282.01 645.62 280.91 645.33 280.36 645.18 L 280.82 646.81 L 279.31 646.15 L 279.63 647.79 C 279.16 647.68 278.23 647.45 277.76 647.34 C 277.24 648.42 276.72 649.50 276.20 650.59 C 275.73 650.50 274.79 650.31 274.32 650.22 L 274.57 651.80 C 274.02 651.64 272.92 651.32 272.37 651.15 L 272.87 652.81 L 271.34 652.06 L 271.59 653.71 C 271.02 653.58 269.88 653.31 269.31 653.17 L 269.74 654.48 C 266.89 654.62 264.05 654.73 261.21 654.69 L 261.73 653.27 L 260.12 653.66 C 260.28 653.10 260.59 651.99 260.75 651.44 L 258.41 651.43 L 260.31 649.76 C 259.75 649.67 258.63 649.49 258.07 649.41 C 258.29 648.91 258.73 647.93 258.95 647.43 L 257.50 647.74 C 257.48 646.23 257.46 644.72 257.45 643.23 L 255.76 643.64 C 256.08 643.09 256.72 642.00 257.04 641.45 L 255.42 641.76 C 255.45 640.88 255.52 639.11 255.55 638.22 L 254.40 638.78 C 254.44 637.90 254.53 636.13 254.58 635.25 L 253.43 635.79 C 253.44 634.25 253.46 632.72 253.48 631.20 L 252.38 631.82 C 252.42 630.93 252.52 629.15 252.56 628.26 L 251.36 628.82 C 251.42 627.93 251.52 626.13 251.58 625.24 L 250.48 625.73 C 250.47 624.22 250.45 622.71 250.44 621.22 L 248.86 621.70 C 249.13 621.13 249.67 620.00 249.95 619.43 L 248.47 619.72 C 248.47 618.21 248.49 616.71 248.51 615.21 L 247.40 615.80 C 247.44 614.90 247.53 613.12 247.58 612.22 L 246.37 612.80 C 246.43 611.91 246.55 610.14 246.61 609.25 L 245.41 609.76 C 245.47 608.87 245.59 607.10 245.65 606.21 L 244.46 606.72 C 244.49 605.23 244.52 603.74 244.55 602.27 L 243.44 602.76 C 243.48 601.86 243.57 600.08 243.61 599.18 L 242.42 599.77 C 242.46 598.88 242.56 597.10 242.61 596.21 L 241.49 596.77 C 241.53 595.24 241.56 593.72 241.60 592.20 L 240.45 592.74 C 240.49 591.86 240.57 590.08 240.61 589.20 L 239.47 589.80 C 239.49 588.27 239.52 586.74 239.56 585.23 L 238.46 585.74 C 238.49 584.86 238.57 583.09 238.61 582.21 L 237.43 582.80 C 237.48 581.90 237.57 580.08 237.61 579.17 L 236.52 579.70 C 236.54 578.20 236.55 576.71 236.57 575.23 L 235.09 575.58 C 235.32 575.03 235.79 573.94 236.02 573.39 L 234.63 573.70 C 234.32 571.81 235.24 569.29 233.39 568.00 C 233.51 567.58 233.74 566.73 233.86 566.31 L 232.55 566.70 C 232.54 564.88 232.49 563.07 232.48 561.26 L 231.05 561.62 C 231.28 561.05 231.73 559.92 231.96 559.35 L 230.68 559.80 C 230.47 557.23 229.74 554.74 229.33 552.21 L 228.42 552.79 C 228.45 551.91 228.50 550.13 228.52 549.24 L 227.49 549.74 C 227.51 548.24 227.53 546.75 227.55 545.26 L 226.05 545.61 C 226.27 545.07 226.71 543.97 226.93 543.42 L 225.49 543.72 C 225.52 542.21 225.56 540.71 225.59 539.21 L 224.46 539.72 C 224.49 538.86 224.54 537.13 224.57 536.27 L 223.44 536.79 C 223.48 535.27 223.53 533.76 223.58 532.25 L 222.49 532.69 C 222.50 531.84 222.52 530.14 222.53 529.28 L 220.98 529.60 C 221.23 529.06 221.72 528.00 221.97 527.47 C 221.67 527.50 221.06 527.58 220.76 527.62 C 220.70 524.75 219.61 522.08 219.27 519.26 L 218.49 519.70 C 218.51 518.22 218.52 516.75 218.53 515.29 L 217.05 515.64 C 217.24 515.09 217.62 513.97 217.81 513.42 L 216.53 513.76 C 216.49 511.62 216.41 509.50 216.33 507.37 C 215.88 507.48 214.97 507.70 214.52 507.81 C 214.48 506.29 214.46 504.78 214.44 503.27 L 212.97 503.50 C 213.32 502.97 214.01 501.91 214.36 501.38 L 212.72 501.68 C 212.33 498.85 211.42 496.11 211.33 493.24 L 209.89 493.62 C 210.15 493.08 210.66 492.01 210.91 491.47 L 209.59 491.70 C 209.54 489.57 209.45 487.46 209.38 485.34 C 208.93 485.44 208.02 485.64 207.56 485.74 C 207.51 483.90 207.45 482.07 207.42 480.25 L 206.10 480.60 C 206.31 480.05 206.73 478.95 206.94 478.40 L 205.48 478.70 C 205.47 477.23 205.47 475.75 205.48 474.29 L 204.42 474.74 C 204.46 473.87 204.54 472.12 204.58 471.25 L 203.36 471.76 C 203.41 470.89 203.49 469.15 203.53 468.28 L 202.44 468.77 C 202.49 467.29 202.54 465.82 202.59 464.35 L 201.16 464.60 C 201.32 464.05 201.66 462.96 201.83 462.42 L 200.54 462.69 C 200.52 460.54 200.47 458.40 200.47 456.25 L 199.16 456.60 C 199.34 456.05 199.70 454.94 199.88 454.38 L 198.46 454.70 C 198.46 453.24 198.47 451.78 198.49 450.33 L 197.18 450.54 C 197.38 450.00 197.79 448.92 197.99 448.38 L 196.74 448.69 C 196.32 446.18 195.62 443.73 195.35 441.20 L 194.40 441.73 C 194.44 440.87 194.51 439.16 194.55 438.30 L 193.57 438.77 C 193.48 435.55 193.19 432.34 192.84 429.15 C 192.70 431.78 192.51 434.41 192.09 437.02 C 191.52 432.76 191.64 428.42 190.34 424.29 L 189.34 424.77 C 189.39 423.90 189.50 422.15 189.55 421.28 L 188.53 421.69 C 188.52 420.24 188.51 418.79 188.50 417.34 L 187.33 417.77 C 187.37 416.91 187.46 415.19 187.51 414.34 L 186.49 414.72 C 186.51 413.23 186.53 411.73 186.55 410.25 L 185.17 410.59 C 185.34 410.05 185.68 408.97 185.85 408.43 L 184.53 408.71 C 184.49 406.55 184.43 404.41 184.40 402.27 L 183.06 402.90 L 183.81 401.24 L 182.48 401.73 C 182.42 399.95 182.36 398.16 182.32 396.39 L 181.00 396.57 C 181.23 396.06 181.70 395.02 181.93 394.50 C 181.55 394.54 180.79 394.63 180.41 394.67 C 180.35 392.55 180.29 390.44 180.28 388.33 L 178.98 388.84 L 179.78 387.23 L 178.18 387.57 C 178.33 387.05 178.62 386.01 178.77 385.49 L 177.49 385.71 C 177.49 383.90 177.48 382.10 177.48 380.30 L 176.20 380.64 C 176.32 380.08 176.57 378.97 176.69 378.42 L 175.41 378.70 C 175.42 377.24 175.43 375.78 175.45 374.32 L 174.19 374.54 C 174.37 374.02 174.74 372.97 174.92 372.44 L 173.27 372.53 C 173.42 372.00 173.72 370.94 173.87 370.41 C 173.56 370.45 172.95 370.51 172.64 370.55 C 172.63 368.45 172.57 366.36 172.52 364.28 L 171.15 364.60 C 171.31 364.06 171.61 362.99 171.76 362.45 L 170.48 362.72 C 170.47 360.90 170.46 359.10 170.47 357.29 L 169.02 357.56 L 169.89 355.50 C 169.53 355.54 168.81 355.63 168.45 355.67 C 168.46 354.22 168.47 352.77 168.48 351.32 L 167.07 351.52 C 167.30 351.00 167.77 349.96 168.01 349.44 L 166.57 349.67 C 166.52 347.88 166.44 346.09 166.40 344.31 L 165.07 344.53 C 165.31 344.00 165.78 342.95 166.02 342.42 L 164.57 342.73 C 164.51 342.05 164.38 340.69 164.32 340.01 C 163.43 338.19 163.56 336.14 163.42 334.18 L 162.21 334.64 C 162.36 334.08 162.67 332.95 162.82 332.38 L 161.51 332.71 C 161.50 330.90 161.47 329.10 161.47 327.31 L 160.13 327.63 C 160.28 327.07 160.59 325.96 160.74 325.40 L 159.44 325.76 C 159.46 324.27 159.49 322.77 159.52 321.28 L 158.20 321.57 C 158.38 321.02 158.72 319.92 158.89 319.37 L 157.46 319.73 C 157.45 318.25 157.45 316.77 157.45 315.30 L 156.51 315.73 C 156.51 314.24 156.51 312.75 156.51 311.26 L 155.10 311.64 C 155.29 311.08 155.67 309.96 155.86 309.40 L 154.55 309.69 C 154.52 307.88 154.48 306.07 154.46 304.26 L 153.10 304.61 C 153.30 304.06 153.68 302.96 153.88 302.41 L 152.51 302.72 C 152.49 300.88 152.46 299.05 152.44 297.22 L 151.04 297.64 C 151.25 297.09 151.66 295.99 151.87 295.44 L 150.49 295.70 C 150.45 293.93 150.41 292.16 150.39 290.39 C 150.04 290.43 149.36 290.52 149.02 290.57 C 149.25 290.03 149.70 288.95 149.93 288.41 L 148.40 288.75 C 148.21 285.91 148.80 283.06 148.49 280.24 C 147.61 278.03 146.46 281.08 145.72 281.82 C 145.58 279.29 145.45 276.76 145.40 274.23 L 144.10 274.66 C 144.30 274.10 144.69 272.96 144.88 272.40 L 143.45 272.70 C 143.46 271.21 143.47 269.73 143.49 268.25 L 142.43 268.74 C 142.48 267.86 142.60 266.09 142.66 265.21 L 141.70 265.77 C 141.29 262.94 140.50 260.18 140.32 257.33 C 139.90 257.40 139.07 257.53 138.65 257.60 C 139.00 257.08 139.69 256.03 140.03 255.51 L 138.51 255.73 C 138.51 254.22 138.51 252.72 138.52 251.21 L 137.17 251.63 C 137.35 251.06 137.71 249.93 137.88 249.36 L 136.54 249.71 C 136.53 247.55 136.48 245.39 136.48 243.24 L 135.14 243.59 C 135.35 243.03 135.77 241.93 135.98 241.38 L 134.51 241.66 C 134.51 240.19 134.51 238.71 134.51 237.24 L 133.47 237.78 C 133.49 236.88 133.55 235.09 133.58 234.19 L 132.41 234.78 C 132.43 233.28 132.46 231.77 132.49 230.28 L 131.44 230.78 C 131.45 229.90 131.48 228.14 131.49 227.26 C 131.02 227.37 130.08 227.59 129.61 227.69 C 129.57 225.88 129.52 224.07 129.49 222.26 L 128.18 222.58 C 128.36 222.03 128.72 220.93 128.90 220.38 L 127.57 220.70 C 127.54 217.32 127.45 213.95 127.49 210.57 C 133.61 210.52 139.74 210.34 145.87 210.54 L 145.26 209.62 Z" />
<path fill="#000000" opacity="1.00" d=" M 568.22 209.50 C 601.69 209.45 635.17 209.59 668.65 209.59 L 668.44 210.83 C 668.92 210.69 669.88 210.42 670.36 210.29 C 670.38 211.37 670.42 213.54 670.44 214.63 L 669.50 214.29 C 669.52 216.43 669.48 218.56 669.48 220.70 L 668.11 220.43 C 668.30 220.96 668.69 222.02 668.89 222.55 L 667.54 222.31 C 667.50 224.11 667.44 225.89 667.43 227.69 L 666.14 227.47 C 666.35 228.00 666.77 229.05 666.98 229.58 L 665.65 229.27 C 665.53 232.14 664.70 234.89 664.31 237.72 L 663.05 237.45 C 663.26 237.97 663.69 239.01 663.91 239.53 L 662.58 239.32 C 662.55 241.11 662.51 242.91 662.48 244.71 L 661.35 244.27 C 661.39 245.10 661.48 246.77 661.52 247.60 L 660.45 247.33 C 660.49 248.77 660.54 250.21 660.59 251.65 L 658.62 251.90 C 659.30 252.15 660.66 252.66 661.34 252.91 C 657.19 252.86 658.84 257.18 658.43 259.70 L 657.06 259.51 C 657.32 260.03 657.85 261.07 658.11 261.59 L 656.51 261.26 C 656.48 262.73 656.47 264.20 656.46 265.68 L 655.53 265.32 C 655.52 266.80 655.53 268.28 655.54 269.77 L 654.13 269.41 C 654.32 269.96 654.70 271.04 654.89 271.59 L 653.52 271.30 C 653.51 273.10 653.49 274.91 653.50 276.72 L 652.32 276.32 C 652.39 276.91 652.53 278.09 652.61 278.68 C 652.14 278.63 651.22 278.54 650.76 278.50 C 650.71 280.90 650.60 283.31 650.49 285.72 L 649.03 285.42 C 649.24 285.95 649.65 287.01 649.85 287.54 L 648.51 287.30 C 648.52 288.16 648.54 289.90 648.54 290.77 L 647.09 290.40 C 647.29 290.94 647.68 292.03 647.88 292.57 L 646.54 292.26 C 646.50 294.07 646.46 295.88 646.42 297.70 C 645.95 297.60 645.02 297.39 644.55 297.29 C 644.54 298.14 644.51 299.85 644.49 300.70 L 643.22 300.38 L 643.61 302.35 C 643.15 302.08 642.24 301.55 641.78 301.29 C 641.67 302.80 641.57 304.32 641.48 305.84 C 641.03 305.73 640.13 305.51 639.68 305.39 C 639.62 306.23 639.50 307.89 639.43 308.72 C 638.97 308.63 638.03 308.44 637.56 308.35 C 637.54 309.19 637.51 310.86 637.50 311.70 L 636.22 311.34 C 636.32 311.88 636.53 312.94 636.63 313.47 C 636.08 313.48 634.97 313.50 634.42 313.51 C 634.51 314.03 634.70 315.09 634.79 315.61 L 633.31 315.42 C 633.38 315.94 633.53 316.98 633.60 317.50 C 633.05 317.54 631.94 317.60 631.38 317.63 L 631.99 319.60 C 631.59 319.56 630.80 319.48 630.40 319.44 C 630.47 319.99 630.62 321.11 630.70 321.66 L 629.22 321.22 L 629.83 322.55 L 628.35 322.40 L 628.65 323.83 L 627.34 323.39 C 627.40 323.91 627.53 324.95 627.59 325.48 C 627.04 325.48 625.94 325.50 625.40 325.51 C 625.47 326.03 625.62 327.06 625.70 327.58 L 624.21 327.38 C 624.30 327.91 624.49 328.98 624.58 329.51 C 624.05 329.50 623.00 329.48 622.47 329.47 C 622.51 330.01 622.59 331.08 622.63 331.62 C 622.07 331.56 620.96 331.45 620.41 331.39 C 620.43 331.95 620.48 333.05 620.51 333.60 C 619.98 333.51 618.93 333.33 618.41 333.25 L 618.52 334.75 C 617.99 334.63 616.94 334.38 616.42 334.25 L 616.81 335.85 L 615.30 335.19 L 615.87 336.57 L 614.40 336.34 L 614.53 337.83 L 613.16 337.20 L 613.69 338.51 C 612.89 338.52 611.28 338.53 610.48 338.53 C 610.49 339.05 610.51 340.09 610.53 340.61 C 609.98 340.53 608.89 340.37 608.35 340.28 L 608.69 341.76 L 607.27 341.20 L 607.53 342.80 C 607.00 342.65 605.94 342.34 605.41 342.19 L 605.70 343.50 C 604.87 343.53 603.20 343.58 602.37 343.61 C 602.47 344.07 602.67 344.99 602.77 345.45 C 601.94 345.49 600.27 345.59 599.44 345.63 C 599.51 346.13 599.65 347.12 599.73 347.62 C 599.15 347.58 598.00 347.48 597.43 347.44 C 597.47 347.99 597.54 349.10 597.58 349.66 C 597.03 349.55 595.93 349.34 595.37 349.24 L 595.58 350.69 C 595.06 350.62 594.02 350.47 593.50 350.39 C 593.51 350.94 593.52 352.04 593.53 352.59 C 592.98 352.51 591.88 352.35 591.33 352.27 L 591.75 353.81 L 590.29 353.16 L 590.58 354.76 C 590.04 354.62 588.95 354.33 588.40 354.19 L 588.71 355.76 L 587.23 355.27 L 587.56 356.91 C 587.03 356.72 585.97 356.34 585.44 356.14 L 585.84 357.75 L 584.58 357.17 L 584.52 358.55 L 583.11 358.53 L 583.57 359.85 C 583.03 359.67 581.95 359.33 581.41 359.15 L 581.86 360.80 L 580.26 360.14 L 580.72 361.49 C 579.91 361.51 578.28 361.54 577.47 361.55 C 577.50 362.08 577.58 363.15 577.61 363.68 C 577.04 363.58 575.89 363.38 575.32 363.27 L 575.76 364.75 L 574.15 364.29 L 574.60 365.91 C 574.06 365.71 572.98 365.32 572.44 365.13 L 572.77 366.72 L 571.24 366.23 L 571.55 367.79 C 571.01 367.65 569.94 367.38 569.41 367.24 L 569.90 368.70 L 568.42 368.23 L 568.53 369.78 L 567.19 369.23 L 567.57 370.78 C 567.04 370.63 565.98 370.34 565.45 370.20 L 565.60 371.74 C 565.08 371.67 564.02 371.52 563.50 371.45 C 563.52 371.95 563.57 372.94 563.60 373.44 C 562.83 373.49 561.30 373.60 560.53 373.65 C 560.56 374.16 560.60 375.17 560.62 375.68 C 560.06 375.59 558.94 375.43 558.38 375.35 L 558.69 376.80 C 558.13 376.71 557.01 376.52 556.44 376.42 C 556.46 376.95 556.49 378.01 556.51 378.54 C 555.98 378.48 554.92 378.37 554.39 378.31 L 554.60 379.77 C 554.07 379.68 553.01 379.49 552.48 379.40 C 552.49 379.96 552.52 381.10 552.53 381.67 C 551.99 381.55 550.91 381.32 550.37 381.20 L 550.61 382.67 C 550.07 382.56 548.98 382.34 548.44 382.23 L 548.50 383.87 C 547.99 383.71 546.96 383.39 546.45 383.23 L 546.83 384.79 L 545.26 384.28 L 545.59 385.92 C 545.06 385.74 544.02 385.39 543.50 385.22 L 543.66 386.75 C 543.10 386.66 541.98 386.48 541.43 386.39 C 541.47 386.91 541.57 387.96 541.62 388.49 C 540.84 388.52 539.27 388.59 538.49 388.63 C 538.52 389.14 538.59 390.17 538.62 390.68 C 538.06 390.61 536.95 390.45 536.39 390.38 L 536.66 391.80 C 536.14 391.70 535.09 391.51 534.56 391.41 C 534.55 391.98 534.51 393.10 534.50 393.66 C 533.96 393.55 532.89 393.35 532.35 393.24 L 532.79 394.75 L 531.24 394.22 L 531.72 395.56 C 530.92 395.58 529.33 395.61 528.53 395.62 C 528.55 396.14 528.60 397.18 528.62 397.70 C 528.06 397.61 526.95 397.42 526.39 397.33 L 526.64 398.77 C 526.11 398.68 525.06 398.51 524.53 398.43 C 524.53 398.99 524.53 400.11 524.54 400.68 C 523.99 400.57 522.90 400.35 522.35 400.24 L 522.83 401.82 L 521.23 401.12 L 521.76 402.52 C 520.88 402.51 519.11 402.51 518.23 402.50 L 518.95 403.87 L 517.29 403.23 L 517.75 404.55 C 516.90 404.57 515.19 404.60 514.34 404.61 C 514.41 402.19 514.48 399.77 514.53 397.35 L 515.97 397.57 C 515.74 397.03 515.30 395.96 515.08 395.42 L 516.45 395.73 C 516.45 393.90 516.48 392.09 516.49 390.28 L 517.86 390.61 C 517.66 390.05 517.28 388.92 517.09 388.36 L 518.47 388.75 C 518.47 387.26 518.48 385.77 518.50 384.29 L 519.86 384.54 C 519.65 384.00 519.23 382.92 519.02 382.39 L 520.54 382.73 C 520.50 381.84 520.42 380.07 520.38 379.18 L 521.46 379.76 C 521.40 378.22 521.35 376.69 521.31 375.16 L 522.44 375.73 C 522.44 374.22 522.43 372.71 522.44 371.20 L 523.40 371.76 C 523.39 369.58 523.44 367.40 523.47 365.22 L 524.84 365.83 L 524.00 364.23 C 524.35 364.32 525.05 364.49 525.40 364.58 C 525.43 361.81 525.52 359.04 525.56 356.27 L 526.96 356.58 C 526.74 356.04 526.28 354.97 526.06 354.44 L 527.47 354.76 C 527.53 352.26 527.61 349.77 527.79 347.28 C 528.05 349.35 528.32 351.42 528.61 353.49 C 528.62 351.40 528.49 349.33 528.38 347.26 L 529.79 347.62 C 529.62 347.03 529.28 345.87 529.10 345.29 L 530.39 345.72 C 530.37 343.20 530.41 340.67 530.41 338.15 L 531.49 338.71 C 531.47 337.83 531.41 336.09 531.39 335.21 L 532.47 335.76 C 532.44 333.90 532.44 332.03 532.43 330.18 L 533.53 330.72 C 533.49 329.84 533.41 328.06 533.37 327.18 L 534.48 327.80 C 534.47 325.59 534.49 323.38 534.47 321.18 L 535.18 321.73 C 535.67 318.90 536.75 316.17 536.65 313.26 L 537.50 313.73 C 537.49 312.24 537.49 310.75 537.50 309.26 L 538.62 309.77 C 538.60 308.27 538.57 306.77 538.56 305.27 L 539.56 305.78 C 539.51 304.25 539.46 302.72 539.43 301.20 L 540.63 301.71 C 540.58 300.87 540.46 299.19 540.40 298.34 L 541.51 298.74 C 541.49 296.91 541.50 295.09 541.51 293.28 L 542.97 293.54 C 542.69 293.00 542.14 291.93 541.86 291.39 L 543.47 291.75 C 543.46 289.92 543.47 288.08 543.46 286.26 C 543.72 286.37 544.25 286.59 544.51 286.70 C 544.48 285.83 544.41 284.10 544.38 283.23 L 545.43 283.70 C 545.28 280.01 546.58 276.50 546.76 272.84 C 546.93 274.25 547.11 275.65 547.31 277.06 C 547.19 273.39 548.49 269.90 548.60 266.25 L 549.79 266.60 C 549.62 266.04 549.29 264.91 549.12 264.35 L 550.40 264.71 C 550.41 262.24 550.47 259.77 550.52 257.30 L 551.82 257.53 C 551.64 257.00 551.29 255.93 551.11 255.39 L 552.47 255.71 C 552.51 253.24 552.58 250.77 552.60 248.30 L 553.54 248.69 C 553.52 247.85 553.49 246.16 553.48 245.32 L 554.58 245.75 C 554.58 243.93 554.61 242.12 554.61 240.30 L 555.57 240.76 C 555.53 239.88 555.44 238.11 555.39 237.22 L 556.34 237.74 C 557.77 234.65 556.54 230.62 558.72 227.99 C 558.57 227.60 558.28 226.83 558.13 226.45 L 559.45 226.72 C 559.46 224.58 559.53 222.45 559.56 220.32 L 560.86 220.57 C 560.68 220.04 560.32 218.97 560.14 218.43 L 561.54 218.71 C 561.53 217.85 561.51 216.13 561.50 215.27 L 562.41 215.72 C 562.40 214.24 562.40 212.76 562.42 211.29 L 563.76 211.83 L 563.30 210.48 C 565.09 210.44 566.90 210.39 568.71 210.38 L 568.22 209.50 Z" />
<path fill="#000000" opacity="1.00" d=" M 353.27 215.28 C 366.60 215.38 379.93 215.44 393.26 215.66 C 395.32 216.71 397.66 216.44 399.90 216.39 L 399.26 217.38 C 401.82 217.35 404.39 217.38 406.96 217.32 L 406.37 218.29 C 409.52 218.30 412.67 218.44 415.83 218.48 L 415.25 219.56 C 416.13 219.52 417.90 219.44 418.78 219.40 L 418.14 220.85 L 419.87 220.15 L 419.11 221.64 L 420.73 221.27 L 420.36 222.87 L 421.84 222.17 L 421.18 223.73 L 422.85 223.40 L 422.22 225.59 C 422.72 225.53 423.73 225.41 424.23 225.35 L 423.01 226.87 L 424.55 226.29 C 424.54 227.39 424.53 229.58 424.53 230.67 C 424.82 230.55 425.39 230.31 425.68 230.19 C 425.64 231.08 425.58 232.87 425.54 233.76 L 426.67 233.13 C 426.61 234.69 426.55 236.24 426.51 237.80 L 427.66 237.13 C 427.61 238.04 427.50 239.85 427.45 240.75 L 428.57 240.16 C 428.56 242.39 428.61 244.62 428.62 246.85 L 429.66 246.15 C 429.62 247.64 429.58 249.15 429.56 250.65 L 430.73 250.13 C 430.67 251.67 430.61 253.21 430.56 254.75 L 431.70 254.16 C 431.62 255.07 431.45 256.89 431.36 257.79 L 432.60 257.22 C 432.54 258.11 432.44 259.89 432.38 260.79 L 433.50 260.20 C 433.48 262.05 433.49 263.91 433.47 265.76 L 434.57 265.27 C 434.52 266.15 434.43 267.90 434.38 268.78 L 435.34 268.21 C 435.55 271.11 436.55 273.89 436.60 276.82 L 437.58 276.24 C 437.53 277.13 437.44 278.91 437.39 279.80 L 438.51 279.24 C 438.47 280.75 438.43 282.25 438.40 283.76 L 439.56 283.27 C 439.53 284.13 439.48 285.84 439.45 286.70 L 440.59 286.24 C 440.55 287.76 440.51 289.27 440.49 290.79 L 441.57 290.20 C 441.59 291.68 441.62 293.17 441.65 294.66 L 443.70 294.13 L 441.97 295.84 L 443.50 295.37 C 443.47 296.82 443.45 298.27 443.44 299.73 L 444.60 299.19 C 444.58 300.09 444.55 301.88 444.53 302.78 L 445.63 302.18 C 445.58 303.08 445.49 304.88 445.45 305.78 L 446.65 305.15 C 446.62 306.04 446.55 307.83 446.51 308.72 L 447.61 308.19 C 447.57 309.70 447.53 311.20 447.51 312.71 L 448.96 312.10 L 448.14 313.77 L 449.51 313.26 C 449.53 315.06 449.56 316.86 449.59 318.67 C 449.99 318.56 450.79 318.34 451.19 318.23 L 450.02 319.79 L 451.52 319.30 C 451.53 320.78 451.55 322.27 451.57 323.76 L 452.94 323.37 C 452.71 323.93 452.26 325.07 452.04 325.64 L 453.49 325.31 C 453.49 326.17 453.49 327.90 453.50 328.76 L 454.56 328.24 C 454.52 329.74 454.50 331.24 454.48 332.75 L 455.94 332.34 C 455.75 332.90 455.35 334.03 455.15 334.60 L 456.49 334.27 C 456.51 336.08 456.57 337.91 456.61 339.73 L 457.95 338.98 L 457.22 340.71 L 458.59 340.26 C 458.58 341.74 458.58 343.23 458.58 344.73 L 459.94 344.33 C 459.74 344.89 459.34 346.02 459.14 346.58 L 460.56 346.27 C 460.58 348.09 460.62 349.91 460.63 351.74 L 461.97 351.10 L 461.22 352.79 L 462.88 352.41 C 462.68 352.96 462.28 354.04 462.09 354.59 L 463.45 354.32 C 463.48 356.10 463.54 357.89 463.58 359.68 C 464.04 359.59 464.96 359.41 465.41 359.32 C 465.46 361.13 465.53 362.96 465.57 364.78 L 466.90 364.39 C 466.69 364.94 466.26 366.06 466.05 366.62 L 467.54 366.27 C 467.53 367.77 467.53 369.28 467.53 370.78 L 468.94 370.37 C 468.71 370.93 468.24 372.06 468.01 372.63 L 469.50 372.30 C 469.49 373.17 469.47 374.91 469.46 375.78 L 470.45 375.24 C 470.48 377.04 470.56 378.84 470.62 380.65 C 471.08 380.53 471.98 380.31 472.43 380.19 C 472.47 382.04 472.51 383.89 472.54 385.75 L 473.95 385.21 L 472.97 386.84 L 474.48 386.27 C 474.49 387.74 474.52 389.22 474.55 390.70 L 475.86 390.37 C 475.69 390.91 475.35 391.99 475.17 392.53 L 476.87 392.47 C 476.69 393.00 476.33 394.05 476.15 394.58 L 477.45 394.30 C 477.48 395.76 477.52 397.22 477.57 398.69 C 478.02 398.60 478.92 398.43 479.37 398.34 C 479.42 400.13 479.48 401.92 479.53 403.73 L 480.84 403.40 C 480.68 403.94 480.36 405.02 480.20 405.56 L 481.58 405.23 C 481.56 406.10 481.51 407.85 481.49 408.72 L 482.81 408.43 C 482.65 408.96 482.34 410.00 482.18 410.52 L 483.89 410.49 C 483.70 411.02 483.32 412.07 483.13 412.59 L 484.49 412.32 C 484.46 413.18 484.40 414.91 484.37 415.77 L 485.74 415.37 C 485.60 415.94 485.34 417.07 485.20 417.64 L 486.49 417.30 C 486.48 418.78 486.47 420.27 486.47 421.77 L 487.86 421.38 C 487.68 421.93 487.32 423.02 487.14 423.56 L 488.49 423.30 C 488.50 425.10 488.56 426.91 488.59 428.72 C 489.04 428.62 489.94 428.41 490.39 428.31 C 490.45 430.11 490.53 431.90 490.58 433.70 L 491.53 433.30 C 491.52 434.16 491.49 435.86 491.48 436.71 L 492.98 436.37 C 492.77 436.92 492.37 438.01 492.16 438.56 L 493.46 438.29 C 493.49 439.74 493.53 441.18 493.58 442.64 C 494.03 442.57 494.94 442.42 495.39 442.35 C 495.44 444.14 495.49 445.93 495.54 447.73 L 496.96 447.22 L 496.00 448.82 L 497.49 448.28 C 497.49 449.14 497.50 450.86 497.50 451.73 L 498.84 451.42 C 498.66 451.96 498.32 453.05 498.15 453.59 L 499.81 453.23 L 499.20 454.80 L 500.90 454.18 L 500.15 455.55 C 501.31 455.55 503.64 455.53 504.81 455.52 L 504.39 454.04 C 504.94 454.28 506.05 454.76 506.60 455.00 L 506.18 453.30 L 507.81 453.77 L 507.34 452.23 C 507.89 452.35 508.99 452.59 509.54 452.71 C 509.52 452.12 509.47 450.94 509.44 450.36 C 509.99 450.43 511.08 450.57 511.62 450.65 C 511.57 450.09 511.47 448.98 511.43 448.43 C 511.99 448.48 513.10 448.59 513.66 448.64 C 513.59 448.06 513.45 446.91 513.37 446.34 L 514.96 446.80 L 514.35 445.25 C 514.92 445.40 516.08 445.68 516.65 445.82 L 516.21 444.17 L 517.81 444.80 L 517.23 443.09 L 518.68 443.92 L 518.36 442.27 L 519.92 442.70 L 519.31 441.22 C 519.87 441.34 520.99 441.59 521.55 441.71 C 521.53 441.11 521.49 439.90 521.48 439.30 C 522.03 439.43 523.15 439.68 523.70 439.81 L 523.11 438.24 L 524.77 438.77 L 524.27 437.10 L 525.90 437.82 L 525.30 436.20 C 525.85 436.32 526.96 436.56 527.52 436.67 C 527.50 436.09 527.44 434.93 527.42 434.35 C 527.97 434.42 529.06 434.55 529.61 434.62 C 529.56 434.07 529.45 432.99 529.40 432.44 C 529.98 432.49 531.13 432.58 531.71 432.63 C 531.63 432.11 531.48 431.08 531.41 430.56 C 532.24 430.54 533.90 430.51 534.73 430.50 L 534.20 429.07 L 535.84 429.81 L 535.33 428.19 C 535.90 428.33 537.03 428.60 537.60 428.74 L 537.36 427.11 C 537.89 427.25 538.96 427.51 539.50 427.65 C 539.46 427.08 539.39 425.93 539.35 425.36 L 540.87 425.70 L 540.45 424.18 C 540.99 424.35 542.07 424.68 542.61 424.85 L 542.35 423.21 C 542.92 423.33 544.05 423.57 544.62 423.69 C 544.56 423.15 544.45 422.08 544.40 421.55 C 545.23 421.54 546.88 421.53 547.71 421.52 L 547.30 420.16 C 547.88 420.31 549.04 420.60 549.62 420.75 L 549.27 419.11 L 550.83 419.81 L 550.41 418.14 C 550.95 418.33 552.03 418.70 552.57 418.89 L 552.42 417.25 C 552.95 417.37 554.03 417.61 554.57 417.73 L 554.40 416.13 C 554.95 416.29 556.05 416.61 556.60 416.76 L 556.18 415.20 L 557.80 415.77 L 557.15 414.59 C 558.36 414.22 559.56 413.83 560.77 413.44 L 560.41 412.16 C 560.95 412.34 562.04 412.68 562.59 412.86 L 562.38 411.25 C 562.93 411.37 564.04 411.60 564.59 411.71 L 564.37 410.14 C 564.90 410.27 565.95 410.54 566.48 410.67 C 566.48 410.09 566.48 408.91 566.49 408.32 C 567.02 408.43 568.09 408.65 568.62 408.76 L 568.35 407.24 C 568.92 407.33 570.04 407.52 570.61 407.61 C 570.54 407.13 570.41 406.18 570.34 405.70 C 571.46 405.35 572.58 404.97 573.69 404.57 L 573.12 403.11 L 574.35 404.17 L 574.51 402.71 C 575.03 402.44 576.07 401.88 576.59 401.60 C 577.58 401.23 578.57 400.87 579.57 400.52 L 579.42 399.54 L 580.13 399.28 C 580.78 399.02 582.07 398.52 582.72 398.26 L 582.33 397.20 C 582.88 397.31 583.99 397.55 584.54 397.66 C 584.52 397.09 584.48 395.94 584.46 395.36 C 585.01 395.47 586.10 395.68 586.65 395.78 L 586.38 394.28 C 586.96 394.38 588.12 394.57 588.71 394.67 L 588.27 392.93 L 589.89 393.92 L 589.25 392.43 C 590.08 392.44 591.75 392.46 592.59 392.47 C 592.53 391.94 592.43 390.88 592.38 390.35 C 592.95 390.44 594.08 390.64 594.65 390.74 L 594.35 389.20 C 594.89 389.31 595.97 389.53 596.52 389.64 C 596.50 389.05 596.47 387.89 596.46 387.31 C 597.00 387.42 598.09 387.65 598.63 387.77 L 598.32 386.26 C 598.88 386.35 600.02 386.52 600.58 386.61 C 600.54 386.06 600.45 384.94 600.40 384.39 C 600.96 384.44 602.07 384.56 602.63 384.62 C 602.57 384.08 602.46 383.00 602.41 382.46 C 602.98 382.50 604.13 382.59 604.70 382.63 C 604.64 382.12 604.50 381.08 604.44 380.57 C 605.26 380.56 606.90 380.54 607.72 380.54 L 607.23 379.07 L 608.83 379.84 L 608.37 378.16 C 608.93 378.33 610.05 378.68 610.61 378.85 L 610.23 377.16 L 611.71 377.87 L 611.42 376.22 C 611.97 376.36 613.07 376.64 613.62 376.78 L 613.21 375.14 L 614.72 375.89 L 614.42 374.22 C 614.98 374.39 616.10 374.71 616.66 374.87 L 616.25 373.50 C 618.06 373.43 619.87 373.35 621.68 373.26 C 621.51 375.76 621.42 378.27 621.44 380.79 L 620.41 380.24 C 620.47 381.12 620.59 382.89 620.65 383.77 L 619.69 383.23 C 619.24 386.42 618.25 389.54 618.42 392.81 L 617.37 392.19 C 617.41 393.08 617.51 394.85 617.56 395.74 L 616.68 395.20 C 616.42 397.40 615.78 399.54 615.35 401.71 L 614.42 401.23 C 614.46 402.74 614.50 404.25 614.55 405.76 L 613.47 405.23 C 613.48 406.72 613.49 408.21 613.51 409.71 L 612.37 409.13 C 612.39 410.01 612.45 411.77 612.47 412.65 C 611.90 412.59 610.76 412.47 610.19 412.41 L 612.42 414.37 C 611.91 414.36 610.88 414.36 610.36 414.35 C 610.41 415.20 610.49 416.90 610.53 417.75 L 609.39 417.21 C 609.42 418.34 609.47 420.58 609.50 421.71 C 609.21 421.58 608.62 421.32 608.32 421.19 C 608.37 422.07 608.48 423.85 608.53 424.73 L 607.39 424.19 C 607.41 425.70 607.43 427.22 607.46 428.74 L 605.99 428.03 L 606.96 429.75 L 605.54 429.28 C 605.50 431.11 605.45 432.95 605.43 434.78 L 604.31 434.16 C 604.37 435.05 604.49 436.84 604.55 437.73 L 603.41 437.19 C 603.42 438.72 603.44 440.26 603.47 441.80 L 602.33 441.15 C 602.38 442.05 602.50 443.86 602.56 444.76 L 601.38 444.18 C 601.40 445.30 601.43 447.54 601.44 448.67 C 601.17 448.56 600.62 448.34 600.35 448.23 C 600.39 449.74 600.43 451.25 600.48 452.76 L 599.33 452.16 C 599.38 453.69 599.43 455.22 599.48 456.76 L 598.34 456.17 C 598.40 457.06 598.51 458.85 598.56 459.75 L 597.40 459.21 C 597.42 460.34 597.45 462.59 597.47 463.71 C 597.17 463.58 596.58 463.31 596.28 463.18 C 596.36 464.08 596.50 465.88 596.58 466.78 L 595.36 466.16 C 595.40 467.05 595.48 468.82 595.52 469.71 L 594.37 469.20 C 594.40 470.72 594.44 472.24 594.48 473.77 L 593.34 473.17 C 593.39 474.07 593.49 475.86 593.54 476.75 L 592.36 476.18 C 592.38 477.30 592.43 479.53 592.45 480.65 C 592.16 480.54 591.58 480.33 591.29 480.22 C 591.36 481.10 591.48 482.85 591.54 483.73 L 590.36 483.17 C 590.39 484.70 590.43 486.23 590.47 487.76 L 589.34 487.15 C 589.38 488.04 589.48 489.83 589.53 490.72 L 588.33 490.18 C 588.37 491.07 588.45 492.85 588.49 493.74 L 587.30 493.17 C 587.37 494.30 587.51 496.56 587.58 497.69 C 587.26 497.57 586.61 497.33 586.29 497.21 C 586.36 498.10 586.50 499.87 586.57 500.75 L 585.40 500.18 C 585.42 501.72 585.46 503.26 585.50 504.80 L 584.39 504.16 C 584.43 505.07 584.52 506.88 584.56 507.79 L 583.36 507.18 C 583.42 508.08 583.53 509.87 583.59 510.77 L 582.40 510.22 C 582.46 511.11 582.58 512.88 582.64 513.77 L 581.46 513.26 C 581.48 514.75 581.51 516.24 581.54 517.74 L 580.43 517.25 C 580.46 518.72 580.49 520.21 580.52 521.69 L 579.05 521.39 C 579.27 521.95 579.71 523.08 579.92 523.64 L 578.55 523.21 C 578.50 523.95 578.42 525.44 578.38 526.19 C 577.65 527.61 577.45 529.20 577.30 530.78 L 576.64 530.18 C 576.41 532.76 575.63 535.24 575.26 537.81 L 574.33 537.16 C 574.36 538.27 574.42 540.51 574.45 541.62 C 574.06 541.56 573.26 541.43 572.86 541.36 C 573.13 541.91 573.66 543.01 573.92 543.56 L 572.45 543.26 C 572.44 544.75 572.45 546.25 572.46 547.75 L 571.35 547.14 C 571.39 548.04 571.48 549.85 571.53 550.75 L 570.31 550.18 C 570.35 551.05 570.43 552.79 570.48 553.67 L 569.29 553.14 C 569.34 554.03 569.43 555.81 569.48 556.70 L 567.51 556.28 C 567.89 556.84 568.67 557.96 569.06 558.53 L 567.37 558.21 C 567.41 559.10 567.48 560.87 567.52 561.76 L 566.37 561.18 C 566.41 562.07 566.48 563.85 566.52 564.74 L 565.08 564.07 L 565.87 565.82 L 564.42 565.25 C 564.46 566.13 564.56 567.89 564.61 568.76 L 563.66 568.27 C 563.26 570.09 562.70 571.87 562.32 573.70 L 561.13 573.40 C 561.32 573.95 561.70 575.04 561.90 575.58 L 560.23 575.41 C 560.38 575.96 560.67 577.07 560.81 577.63 L 559.20 577.41 C 559.35 577.96 559.65 579.05 559.80 579.60 L 558.16 579.38 C 558.31 579.93 558.63 581.03 558.78 581.58 L 557.10 581.42 C 557.30 581.95 557.68 583.03 557.88 583.57 L 556.35 583.32 C 556.44 584.36 556.63 586.42 556.72 587.46 C 556.34 586.29 555.58 583.94 555.20 582.77 C 555.33 583.75 555.60 585.71 555.73 586.68 C 555.35 586.63 554.58 586.53 554.20 586.48 L 554.87 588.53 L 553.16 588.46 C 553.33 588.98 553.66 590.03 553.83 590.55 L 552.18 590.43 C 552.34 590.97 552.65 592.06 552.80 592.60 L 551.14 592.25 L 551.85 593.76 L 550.28 593.36 C 550.37 593.91 550.56 595.01 550.65 595.57 C 550.08 595.52 548.94 595.44 548.37 595.40 C 548.42 595.96 548.53 597.08 548.58 597.65 C 548.02 597.56 546.89 597.38 546.33 597.29 L 546.91 598.70 L 545.40 598.33 L 545.57 599.92 L 544.13 599.36 C 544.31 599.91 544.68 601.00 544.87 601.55 L 543.17 601.44 C 543.35 601.99 543.70 603.08 543.88 603.62 L 542.26 603.17 L 542.80 604.77 L 541.43 604.11 L 541.64 605.60 L 540.19 605.45 L 540.62 606.75 C 540.09 606.65 539.04 606.46 538.51 606.36 C 538.51 606.94 538.49 608.11 538.49 608.69 C 537.95 608.56 536.88 608.31 536.34 608.19 L 536.78 609.73 L 535.21 609.11 L 535.66 610.47 C 534.84 610.49 533.21 610.54 532.39 610.57 C 532.44 611.08 532.54 612.10 532.59 612.61 C 532.03 612.54 530.92 612.40 530.37 612.33 L 530.74 613.82 L 529.22 613.12 L 529.58 614.70 C 529.05 614.60 527.99 614.39 527.45 614.29 L 527.51 615.94 L 525.54 615.16 C 525.57 615.58 525.63 616.43 525.67 616.86 L 524.20 616.18 L 524.77 617.60 C 523.96 617.60 522.34 617.61 521.53 617.62 C 521.57 618.14 521.63 619.18 521.66 619.71 C 521.09 619.62 519.96 619.44 519.39 619.35 L 519.67 620.77 C 519.10 620.68 517.96 620.50 517.40 620.41 C 517.46 620.92 517.58 621.95 517.65 622.46 C 516.80 622.47 515.11 622.50 514.26 622.51 L 514.86 623.86 L 513.27 623.29 L 513.56 624.93 C 513.03 624.73 511.97 624.33 511.44 624.13 L 511.76 625.72 L 510.13 625.16 L 510.72 626.49 C 509.85 626.51 508.13 626.56 507.27 626.59 C 507.37 627.04 507.58 627.95 507.69 628.40 C 506.84 628.44 505.14 628.51 504.29 628.55 L 504.61 629.92 C 504.07 629.73 502.99 629.36 502.45 629.17 L 502.85 630.78 L 501.29 630.24 L 501.72 631.54 C 500.87 631.55 499.17 631.56 498.31 631.56 C 498.41 632.03 498.61 632.98 498.71 633.45 C 497.85 633.47 496.14 633.52 495.28 633.54 L 495.63 634.89 C 495.09 634.72 494.02 634.36 493.49 634.19 L 493.60 635.82 C 493.05 635.68 491.97 635.42 491.43 635.28 L 491.57 636.87 C 491.04 636.70 489.98 636.34 489.45 636.17 L 489.59 637.84 C 489.03 637.68 487.93 637.34 487.37 637.18 L 487.74 638.54 C 486.87 638.54 485.13 638.54 484.27 638.54 C 484.37 639.00 484.58 639.93 484.69 640.39 C 483.21 640.43 481.74 640.48 480.28 640.53 L 480.63 641.86 C 480.09 641.69 479.01 641.36 478.47 641.19 L 478.55 642.87 C 478.02 642.69 476.98 642.33 476.45 642.14 L 476.58 643.73 C 476.04 643.61 474.95 643.36 474.41 643.23 L 474.54 644.88 C 474.01 644.69 472.94 644.29 472.40 644.10 L 472.68 645.47 C 471.21 645.46 469.74 645.46 468.27 645.47 L 468.82 646.94 L 467.21 646.01 L 467.70 647.40 C 466.38 647.44 465.06 647.49 463.74 647.57 C 461.52 649.04 458.78 648.64 456.28 648.65 L 456.77 647.25 L 455.17 647.56 C 455.33 647.02 455.64 645.95 455.79 645.41 L 454.47 645.74 C 454.45 644.27 454.42 642.81 454.41 641.36 C 453.94 641.45 453.01 641.63 452.55 641.71 C 452.52 640.21 452.50 638.71 452.48 637.22 L 451.17 637.63 C 451.35 637.08 451.70 635.96 451.88 635.40 L 450.71 635.68 C 450.53 634.34 450.12 633.08 449.48 631.90 C 449.55 631.52 449.69 630.75 449.77 630.37 L 448.17 630.59 C 448.33 630.04 448.65 628.95 448.81 628.41 L 447.50 628.73 C 447.47 627.25 447.44 625.78 447.41 624.31 C 446.95 624.42 446.03 624.62 445.57 624.72 C 445.53 623.23 445.51 621.74 445.49 620.26 L 444.17 620.59 C 444.36 620.04 444.73 618.93 444.92 618.38 L 443.46 618.71 C 443.49 617.84 443.53 616.11 443.56 615.24 L 442.48 615.73 C 442.49 614.87 442.52 613.16 442.53 612.30 L 441.07 612.87 L 441.85 611.21 L 440.57 611.72 C 440.53 609.93 440.46 608.14 440.42 606.37 C 439.96 606.44 439.03 606.58 438.56 606.65 C 438.53 605.19 438.51 603.74 438.49 602.29 L 437.16 602.56 C 437.34 602.03 437.71 600.95 437.89 600.42 L 436.69 600.73 C 436.44 598.55 435.83 596.46 435.33 594.34 L 434.04 594.55 C 434.26 594.02 434.69 592.96 434.90 592.43 L 433.54 592.71 C 433.54 591.84 433.54 590.10 433.54 589.23 L 432.16 589.65 C 432.31 589.09 432.62 587.97 432.78 587.40 L 431.46 587.71 C 431.48 586.22 431.50 584.75 431.52 583.27 L 430.18 583.86 L 430.82 582.22 L 429.47 582.73 C 429.48 581.24 429.49 579.76 429.52 578.29 L 428.20 578.52 C 428.39 577.98 428.76 576.91 428.95 576.38 L 427.48 576.69 C 427.48 575.83 427.49 574.11 427.49 573.26 L 426.22 573.64 C 426.37 573.09 426.68 571.98 426.84 571.43 L 425.17 571.51 C 425.34 571.00 425.68 569.98 425.85 569.47 L 424.57 569.63 C 424.55 568.14 424.52 566.67 424.50 565.20 C 424.04 565.29 423.12 565.47 422.66 565.56 C 422.62 564.15 422.59 562.75 422.58 561.35 C 422.24 561.39 421.56 561.46 421.23 561.49 L 421.80 559.51 C 421.30 559.47 420.28 559.38 419.78 559.34 C 419.74 557.60 419.68 555.86 419.65 554.14 L 418.58 554.68 C 418.54 553.84 418.46 552.15 418.42 551.31 L 417.10 551.54 C 417.32 551.03 417.75 550.01 417.96 549.50 L 416.33 549.56 C 416.42 549.04 416.59 548.01 416.68 547.50 L 415.17 547.47 C 415.36 546.95 415.75 545.91 415.94 545.38 L 414.70 545.61 C 414.64 544.79 414.52 543.13 414.45 542.30 C 414.03 542.36 413.20 542.46 412.78 542.51 C 412.69 540.77 412.57 539.04 412.49 537.32 L 411.18 537.72 L 411.95 536.26 C 411.61 536.34 410.93 536.48 410.60 536.55 C 410.60 535.51 410.60 533.42 410.60 532.37 C 410.24 532.38 409.52 532.39 409.17 532.39 L 410.00 530.50 L 408.51 530.65 C 408.52 529.81 408.54 528.13 408.55 527.29 L 407.31 527.56 C 407.43 527.03 407.66 525.97 407.78 525.44 L 406.20 525.46 C 406.39 524.94 406.79 523.92 406.98 523.40 L 405.66 523.58 C 405.67 522.74 405.67 521.07 405.68 520.24 L 404.31 520.46 C 404.47 519.93 404.78 518.88 404.94 518.36 L 403.67 518.68 C 403.58 517.22 403.50 515.76 403.42 514.30 C 403.00 514.36 402.17 514.48 401.75 514.54 C 401.67 512.78 401.56 511.01 401.49 509.26 L 400.16 509.62 C 400.30 509.09 400.58 508.03 400.72 507.50 L 399.12 507.53 C 399.33 507.00 399.75 505.93 399.95 505.40 L 398.66 505.62 C 398.63 504.77 398.57 503.08 398.54 502.24 C 398.11 502.29 397.26 502.38 396.84 502.42 C 396.73 500.38 396.60 498.35 396.50 496.32 L 395.16 496.71 L 395.96 495.22 C 395.65 495.30 395.03 495.46 394.71 495.54 C 394.62 493.77 394.53 492.01 394.44 490.25 C 394.01 490.33 393.16 490.50 392.74 490.58 C 392.65 488.48 392.53 486.38 392.45 484.28 L 391.07 484.77 L 391.97 483.20 L 390.54 483.71 C 390.50 482.23 390.47 480.76 390.45 479.30 L 389.11 479.57 C 389.30 479.04 389.69 477.98 389.88 477.45 L 388.46 477.71 C 388.48 476.84 388.51 475.09 388.53 474.21 L 387.24 474.65 C 387.38 474.09 387.64 472.98 387.78 472.42 L 386.12 472.49 C 386.32 471.98 386.72 470.96 386.92 470.44 L 385.55 470.68 C 385.56 469.20 385.57 467.73 385.58 466.27 L 384.20 466.60 C 384.35 466.06 384.64 464.98 384.79 464.43 L 383.47 464.69 C 383.48 463.19 383.49 461.70 383.50 460.22 L 382.14 460.86 L 382.83 459.17 L 381.50 459.75 C 381.45 457.96 381.39 456.19 381.34 454.41 C 380.87 454.51 379.94 454.70 379.48 454.79 C 379.47 453.90 379.45 452.12 379.43 451.24 L 378.10 451.66 C 378.30 451.10 378.68 449.98 378.88 449.42 L 377.64 449.66 C 377.07 447.53 376.50 445.41 376.32 443.22 L 375.11 443.95 L 375.78 442.26 L 374.49 442.77 C 374.46 440.95 374.41 439.14 374.38 437.34 C 373.92 437.43 373.00 437.61 372.54 437.70 C 372.49 436.23 372.45 434.76 372.42 433.30 L 371.08 433.82 L 371.90 432.19 L 370.44 432.73 C 370.45 431.86 370.48 430.11 370.49 429.24 L 369.47 429.80 C 369.47 428.31 369.46 426.84 369.45 425.37 C 368.98 425.44 368.04 425.60 367.57 425.68 C 367.54 424.19 367.51 422.71 367.49 421.23 L 366.17 421.63 C 366.32 421.05 366.61 419.88 366.75 419.29 L 365.39 419.76 C 365.43 418.88 365.51 417.12 365.55 416.25 L 364.24 416.63 C 364.39 416.08 364.69 414.97 364.84 414.41 L 363.16 414.50 C 363.34 413.97 363.70 412.92 363.88 412.39 L 362.51 412.71 C 362.54 411.84 362.58 410.09 362.60 409.22 L 361.25 409.62 C 361.39 409.06 361.67 407.94 361.82 407.38 L 360.50 407.69 C 360.50 406.20 360.51 404.72 360.52 403.25 L 359.05 403.82 L 360.01 402.21 L 358.54 402.71 C 358.52 401.23 358.50 399.75 358.48 398.28 L 357.19 398.66 C 357.32 398.10 357.58 396.97 357.71 396.41 L 356.10 396.62 C 356.28 396.05 356.65 394.92 356.83 394.36 L 355.52 394.73 C 355.53 393.86 355.56 392.12 355.58 391.25 L 354.11 391.61 C 354.30 391.05 354.69 389.93 354.88 389.37 L 353.47 389.77 C 353.50 388.88 353.55 387.11 353.58 386.22 L 352.43 386.77 C 352.43 385.91 352.45 384.18 352.46 383.32 C 352.17 383.42 351.59 383.64 351.31 383.75 C 351.38 382.88 351.52 381.14 351.59 380.27 L 350.16 380.70 C 350.30 380.11 350.60 378.94 350.74 378.35 L 349.37 378.72 C 349.42 377.86 349.51 376.14 349.56 375.29 L 348.15 375.62 C 348.32 375.07 348.67 373.95 348.85 373.40 L 347.63 373.73 C 347.24 371.88 346.72 370.07 346.39 368.22 L 345.45 368.77 C 345.47 367.88 345.51 366.11 345.53 365.23 L 344.64 365.76 C 344.31 363.90 343.75 362.11 343.36 360.28 L 342.51 360.75 C 342.50 358.27 342.44 355.78 342.46 353.30 C 342.16 353.43 341.57 353.68 341.28 353.81 C 341.35 352.92 341.50 351.14 341.58 350.24 L 340.46 350.85 C 340.47 342.96 340.43 335.07 340.52 327.19 L 341.60 327.78 C 341.52 326.26 341.45 324.74 341.38 323.23 L 342.49 323.77 C 342.46 321.92 342.47 320.07 342.45 318.22 L 343.50 318.76 C 343.50 317.26 343.49 315.77 343.50 314.28 L 345.09 314.54 C 344.76 313.99 344.10 312.90 343.77 312.35 L 345.48 312.74 C 345.45 311.84 345.37 310.05 345.34 309.16 L 346.52 309.74 C 346.48 308.85 346.39 307.07 346.34 306.18 L 347.46 306.76 C 347.47 305.26 347.48 303.77 347.50 302.28 L 348.92 302.65 C 348.73 302.10 348.34 301.00 348.14 300.45 L 349.79 300.54 C 349.59 299.98 349.20 298.87 349.00 298.31 L 350.47 298.65 C 350.43 297.79 350.35 296.06 350.30 295.19 C 350.60 295.32 351.20 295.56 351.49 295.68 C 351.46 294.57 351.41 292.33 351.38 291.21 L 352.52 291.72 C 352.48 290.83 352.38 289.06 352.33 288.18 L 353.54 288.75 C 353.50 287.85 353.40 286.07 353.36 285.18 L 354.53 285.75 C 354.49 284.87 354.42 283.12 354.38 282.25 L 355.81 282.75 C 355.62 282.15 355.25 280.95 355.07 280.34 L 356.43 280.73 C 356.43 279.23 356.43 277.72 356.44 276.22 L 357.56 276.81 C 357.53 275.90 357.47 274.09 357.45 273.18 L 358.47 273.78 C 358.48 271.58 358.53 269.39 358.54 267.20 L 359.51 267.82 C 359.64 258.96 359.61 250.10 359.46 241.24 L 358.53 241.79 C 358.51 239.28 358.43 236.78 358.39 234.28 L 357.02 234.69 C 357.24 234.11 357.68 232.96 357.90 232.39 L 356.44 232.74 C 356.47 231.24 356.50 229.75 356.54 228.26 L 355.45 228.79 C 355.46 227.90 355.48 226.13 355.49 225.24 L 354.32 225.84 C 354.36 224.95 354.44 223.16 354.48 222.27 L 353.39 222.88 C 353.36 220.35 353.32 217.81 353.27 215.28 Z" />
</g>
</svg>
